<?xml version="1.0" encoding="utf-8"?>
<!-- Generator: Adobe Illustrator 24.1.2, SVG Export Plug-In . SVG Version: 6.00 Build 0)  -->
<svg version="1.1" id="Layer_1" xmlns="http://www.w3.org/2000/svg" xmlns:xlink="http://www.w3.org/1999/xlink" x="0px" y="0px" viewBox="0 0 50 35.3" style="enable-background:new 0 0 50 35.3;" xml:space="preserve">
    <style type="text/css">
    .outline {
        fill: #CCCCCC;
    }

    .inside {
        fill: #F5F1D9;
    }
    </style>
    <path class="outline" d="M48.7,12c-0.2,2.1-3.6,3.7-3.6,3.7l-0.5-0.9c0,0,1.5-1,1.9-1.4c1.3-1.1,1.3-2.2,0.2-3.5
	c-2.4-2.7-6.7-4.3-6.7-4.3s3.7,7.4,5.3,10.5c0.5,1,0.4,1.5-0.5,2.2c-1.8,1.3-3.9,2.1-6.1,2.3c-1.1,0.1-2.1-0.3-3.2-2.3
	c-5.4,2.8-11.3,5.8-16.6,8.6c0-0.2-0.4-1.1-0.4-1.1s14.5-7.5,16.3-8.4c-1.1-1.9-2.1-3.7-3.2-5.6c-5.2,2.7-10.5,5.4-15.9,8.2
	c0.8,1.5,1.5,3,2.2,4.4c0.3,0.6,0.5,1.1,0.8,1.7c0.4,0.9,0.2,1.7-0.2,2.5c-0.8,1.4-1.7,2.9-2.6,4.3c-0.3,0.4-0.7,1-1.2,1.1
	C12.9,34.2,1.6,28,1.1,25.6c-0.1-0.5,0-1.1,0.2-1.4c0.8-1.3,3.6-2.6,4.5-3.2c-1-2.3-0.4-2.8,1.6-3.2c1.9-0.3,3.8-0.5,5.7-0.5
	c0.8,0,1.5,0.8,2.5,1.3c5-2.6,10.3-5.3,15.6-8.1C30.6,8,32,6.2,33.7,4.8C35,3.7,36.2,3,37.6,2c0.3-0.2,0.4-0.2,0.5,0
	c0.2,0.3,0.9,1.7,1.2,2.4C41.3,4.5,49.1,8.5,48.7,12z M37.6,3.3c-1.4,1.2-3,2.3-4.3,3.6c-1.1,1.1-1.4,2.5-0.6,3.9
	c1,2,3.4,6.2,3.5,6.2c0.7-2.7,1.5-5.5,2.2-8.2C39,6.3,38.4,4.7,37.6,3.3z M44.7,17c-1.6-3.1-3.2-6.2-4.9-9.5
	c-0.5,1.9-2.2,8.7-2.4,10.5c-0.1,1.1,0.2,1.4,1.3,1.3C40.9,19.3,42.8,18.4,44.7,17z M14,18.9c0,0-2,8.6-1.1,12.9
	c0.3,1.7,1.6,0.9,2.2,0.3c1.1-1.2,1.8-2.7,2.5-4.1c0.4-0.8,0.4-1.3,0-2.2C16.4,23.6,13.9,18.8,14,18.9z M12.7,18.3
	c-1.9,0.3-3.7,0.5-5.5,0.7c-0.4,0.1-0.6,0.3-0.5,0.7c0.9,2.7,1.8,5.3,3.3,7.7c0.3,0.5,0.8,1,1.2,1.5C11.7,25.4,12.2,22,12.7,18.3z
	 M6.3,22.1c-1.2,0.7-4.1,1.7-4,3.1c0.1,2.1,9.2,5.7,9.2,5.7S7,25.5,6.3,22.1z" />
    <g>
        <path class="inside" d="M17.9,24.3c-0.7-1.5-1.4-2.9-2.2-4.4c5.4-2.8,10.7-5.5,15.9-8.2c1.1,1.9,2.1,3.7,3.2,5.6
		c-1.8,0.9-16.3,8.4-16.3,8.4S18.2,24.9,17.9,24.3z" />
        <path class="inside" d="M37.6,3.3c0.8,1.3,1.5,2.8,0.7,5.5c-0.8,2.7-1.5,5.5-2.2,8.2c-1.6-2.7-2.4-4.3-3.5-6.2
		c-0.7-1.4-0.5-2.8,0.6-3.9C34.6,5.6,37.6,3.3,37.6,3.3z" />
        <path class="inside" d="M44.7,17c-1.9,1.4-3.8,2.2-6,2.4c-1,0.1-1.4-0.3-1.3-1.3c0.2-1.8,0.9-5.4,2.4-10.5
		C41.5,10.8,43.1,13.9,44.7,17z" />
        <path class="inside" d="M17.5,25.8c0.4,0.8,0.4,1.4,0,2.2c-0.7,1.4-1.3,2.8-2.5,4.1c-0.3,0.3-1.6,1.6-2.2-0.2c-1-3.3,1.1-13,1.1-13
		S16.5,23.8,17.5,25.8z" />
        <path class="inside" d="M12.7,18.3c-0.5,3.7-1,7.1-1.4,10.6c-0.4-0.5-0.9-1-1.2-1.5c-1.6-2.3-2.5-5-3.3-7.7c-0.2-0.5,0-0.7,0.5-0.7
		C9,18.8,10.8,18.6,12.7,18.3z" />
        <path class="inside" d="M6.3,22.1c1,3.7,5.1,8.7,5.1,8.7s-9.3-3.5-9.2-5.7C2.3,23.7,5.1,22.8,6.3,22.1z" />
        <path class="inside" d="M44.7,14.7l-4.6-9.1c0,0,5.7,2.2,7.1,4.9C47.8,11.5,48.4,12.6,44.7,14.7z" />
    </g>
</svg>