<?xml version="1.0" encoding="utf-8"?>
<!-- Generator: Adobe Illustrator 24.1.2, SVG Export Plug-In . SVG Version: 6.00 Build 0)  -->
<svg version="1.1" id="Layer_1" xmlns="http://www.w3.org/2000/svg" xmlns:xlink="http://www.w3.org/1999/xlink" x="0px" y="0px"
	 viewBox="0 0 100 65" style="enable-background:new 0 0 100 65;" xml:space="preserve">
<style type="text/css">
	.st0{fill:#FFFFFF;}
	.st1{fill:#0060D0;}
	.st2{font-family:'MyriadPro-CondIt';}
	.st3{font-size:12px;}
</style>
<path class="st0" d="M77.9,38.7c-1.5,0-53,0-53,0V24.2c0,0,51.6,0,53,0c0.5,0,0.8,0.2,0.8,0.8c-0.1,2.7,0,11.8,0,13
	C78.6,38.4,78.3,38.7,77.9,38.7z"/>
<path class="st0" d="M25.8,46.2c0,1.4-0.8,1.9-1.9,1.1C17.5,43,5.2,35.1,1.8,32.5C1.2,32,1,31.6,1,31.4c0-0.4,0.3-1,1-1.6
	c4.2-3.2,15.5-10,21.5-14c0.5-0.4,1.3-0.6,1.8-0.4c0.4,0.2,0.5,1.1,0.5,1.7C25.8,19.1,25.8,43.8,25.8,46.2z"/>
<text transform="matrix(1 0 0 1 27.4797 34.9783)" class="st1 st2 st3">Next Activity</text>
</svg>
