<?xml version="1.0" encoding="utf-8"?>
<!-- Generator: Adobe Illustrator 24.1.2, SVG Export Plug-In . SVG Version: 6.00 Build 0)  -->
<svg version="1.1" id="Layer_1" xmlns="http://www.w3.org/2000/svg" xmlns:xlink="http://www.w3.org/1999/xlink" x="0px" y="0px"
	 viewBox="0 0 81.6 65" style="enable-background:new 0 0 81.6 65;" xml:space="preserve">
<style type="text/css">
	.st0{fill:none;stroke:#FFFFFF;stroke-miterlimit:10;}
	.st1{fill:#FFFFFF;}
	.st2{font-family:'MyriadPro-CondIt';}
	.st3{font-size:12px;}
	.st4{fill:#7029FF;}
</style>
<path class="st0" d="M25.8,49c0,1.5-0.8,2.1-1.9,1.2C17.5,45.5,5.2,36.9,1.8,34c-0.6-0.5-0.8-1-0.8-1.2c0-0.4,0.3-1.1,1-1.7
	c4.2-3.5,15.5-10.9,21.5-15.3c0.5-0.4,1.3-0.7,1.8-0.4c0.4,0.2,0.5,1.2,0.5,1.9c0,0.7,0.1,8.5,0.1,8.5s52.2,0.3,52.7,0.3
	c0.1,0,0.2,0.1,0.2,0.1c0,0.1,0,14.5,0,14.7c0,0.1-0.1,0.2-0.2,0.2c-1,0-52.7,0.1-52.7,0.1S25.8,48.1,25.8,49z"/>
<text transform="matrix(1 0 0 1 27.4489 37.0881)" class="st1 st2 st3">Next Activity</text>
<path class="st4" d="M76.7,31.7"/>
</svg>
