<?xml version="1.0" encoding="utf-8"?>
<!-- Generator: Adobe Illustrator 24.1.0, SVG Export Plug-In . SVG Version: 6.00 Build 0)  -->
<svg version="1.1" id="Layer_1" xmlns="http://www.w3.org/2000/svg" xmlns:xlink="http://www.w3.org/1999/xlink" x="0px" y="0px" viewBox="0 0 800 800" style="enable-background:new 0 0 800 800;" xml:space="preserve">
    <style type="text/css">
    .palette {
        fill: #e7c988;
    }

    .brush {
        fill: #a78744;
    }

    .c1 {
        fill: #f51aa6;
    }

    .c2 {
        fill: #ff9e0c;
    }

    .c3 {
        fill: #f3f324;
    }

    .c4 {
        fill: #80be2a;
    }

    .c5 {
        fill: #1662d3
    }
    </style>
    <g>
        <path class="palette" d="M567.6,181c-33.8,41.4-70.3,77.8-103.5,117.3c-3.8,4.4-10.7,6.7-16.8,8.7c-42.7,13.7-71.8,40.3-82.8,83
        c-8.2,31.6-18.5,57.7-47.9,75.2c-52.9,37.1,2.8,68.9,131.2,24.7c52.8-18.2,81.6-60.4,87.7-116c0.5-5.3,2-12.1,5.8-15.4
        c21.6-21.3,48.6-51.5,70.6-73.1c-8.2,24.9-43.5,127.5-47.1,143.4c-9.3,40.7,26.3,72.2,68,61.6c8.6-2.2,17.3-4.5,26.2-5.3
        c45.2-3.8,83.9,25.9,58,93.1c-56.4,146.1-390.7,357.5-628.1,81.6c-98-114.1-153-431.9,154-562.6C350,51.6,502.8,99,567.6,181z
         M187.8,329.2c29.9,0.1,54.3-22.8,54.6-51.6c0.3-28.5-24.2-52.4-53.8-52.5c-29.7-0.3-54.3,23.2-54.5,51.7
        C133.8,305.7,157.9,329,187.8,329.2z M389.3,202c-0.7-29.2-24.7-51.5-55-51c-29.8,0.5-53.9,24.6-53.3,53
        c0.8,28.5,25.9,51.7,55.4,51.2C366.2,254.7,390,230.8,389.3,202z M236.9,579.4c-0.4-28.9-25.1-52-54.7-51.3
        c-29.4,0.6-53.9,25.2-53.3,53.3c0.7,28.7,25.4,51.3,55.3,51C214.4,631.9,237.4,608.7,236.9,579.4z M181.9,431.2
        c0.1-29-23.6-52.1-53.7-52.1c-30.3,0-54.1,22.7-54.2,51.7c-0.1,28.7,24.3,52.5,53.8,52.8C156.9,483.6,181.7,459.7,181.9,431.2z
         M323,714c29.8,0,54.3-23.6,54.3-52c0-28.1-25.1-52.3-54.5-52.3c-29.8,0-53.8,23.5-53.8,52.4C269.2,691.4,292.7,714,323,714z" />
        <path class="brush" d="M497.6,288c74.6-85.6,153.5-173.3,232-257.2c12.7-13.5,22.4-32.9,47.5-12.4c26,21.3,7.9,34.5-4.3,49.8
        c-71.5,89.6-146.3,175.7-223.1,263.5C519.9,365.2,463.4,322.9,497.6,288z" />
        <path class="brush" d="M317.1,484.4c38.2-21.3,54.9-55.2,68.2-94.5c7-20.4,27.1-39.7,46.2-52.5c32.6-21.9,81.2-5.2,86.4,38.4
        c-2.5,39.5-22.5,69.5-56.8,90.4c-42,25.7-89.4,30-137.5,29.7C320.6,495.8,300.1,495.8,317.1,484.4z" />
    </g>
    <g class="circles">
        <path class="c1" d="M187.8,329.7c-29.9-0.1-53.9-23.6-53.8-52.4c0.1-28.5,24.8-52,54.5-51.7s54.1,24.1,53.8,52.5
        C242.1,306.8,217.7,329.9,187.8,329.7z" />
        <path class="c2" d="M389.3,202.5c0.7,28.8-23.1,52.8-52.9,53.3c-29.5,0.5-54.6-22.7-55.4-51.2c-0.8-28.4,23.5-52.5,53.3-53
        C364.6,151,388.8,173.3,389.3,202.5z" />
        <path class="c3" d="M236.9,579.9c0.4,29.4-22.5,52.5-52.9,52.9c-30.1,0.4-54.7-22.3-55.3-51c-0.7-28.1,23.9-52.6,53.3-53.3
        C211.8,527.9,236.5,551,236.9,579.9z" />
        <path class="c4" d="M181.9,431.7c-0.1,28.5-25,52.5-54.2,52.3c-29.4-0.1-53.8-24.1-53.8-52.8c0.1-29,23.9-51.7,54.2-51.7
        C158.3,379.5,182,402.5,181.9,431.7z" />
        <path class="c5" d="M323,714.5c-30.3,0-53.9-22.7-53.9-51.9c0-28.9,24-52.4,53.8-52.4c29.4,0,54.3,24,54.5,52.3
        C377.4,691,352.8,714.5,323,714.5z" />
    </g>
</svg>