<?xml version="1.0" encoding="utf-8"?>
<!-- Generator: Adobe Illustrator 24.1.2, SVG Export Plug-In . SVG Version: 6.00 Build 0)  -->
<svg version="1.1" id="Layer_1" xmlns="http://www.w3.org/2000/svg" xmlns:xlink="http://www.w3.org/1999/xlink" x="0px" y="0px"
	 viewBox="0 0 51 171" style="enable-background:new 0 0 51 171;" xml:space="preserve">
<style type="text/css">
	.st0{fill:#F48F00;}
	.st1{fill:#E4BC89;}
</style>
<g>
	<path class="st0" d="M34.4,73.4c-0.1,26.3-0.6,53.7-1.6,80.3c-0.2,4.3,1.1,9.2-6.4,9.4c-7.8,0.2-6.6-4.8-6.8-9.4
		c-1.1-26.5-1-53-0.9-80C18.7,63.2,35.1,62.1,34.4,73.4z"/>
	<path class="st1" d="M36.2,11.6c-3.5,9.5-1.2,18,2.4,26.9c1.9,4.6,1.3,11.1-0.1,16.2c-2.4,8.8-13.4,13.2-21,6.4
		c-5.6-7.3-6.6-15.6-3.8-24.5c3.5-10.9,11.1-18.8,19.6-26.1C33.9,10.1,37.4,7,36.2,11.6z"/>
</g>
</svg>
